<svg width="366" height="603" viewBox="0 0 366 603" fill="none" xmlns="http://www.w3.org/2000/svg">
<g opacity="0.5" filter="url(#filter0_f_257206_166)">
<ellipse cx="184.13" cy="513.155" rx="62.7933" ry="4.64867" fill="url(#paint0_linear_257206_166)"/>
</g>
<path d="M74.426 204.959C73.0948 144.074 122.086 94 182.986 94C243.937 94 292.949 144.156 291.542 205.091L286.931 404.919C286.267 433.661 266.983 458.63 239.341 466.536L217.047 472.913C212.099 474.328 209.625 475.036 207.164 475.615C191.163 479.378 174.507 479.378 158.506 475.615C156.045 475.036 153.571 474.328 148.622 472.913L126.427 466.564C98.7335 458.643 79.4252 433.612 78.7956 404.815L74.426 204.959Z" fill="url(#paint1_linear_257206_166)"/>
<path opacity="0.6" d="M182.871 268.848C182.908 172.271 293.666 110.813 291.437 207.364L286.883 404.662C286.482 422.052 286.281 430.747 283.224 438.026C280.511 444.484 276.217 450.123 270.755 454.402C264.599 459.224 256.393 461.571 239.98 466.264L210.598 474.667C196.781 478.619 189.873 480.594 182.789 480.594L182.871 268.848Z" fill="url(#paint2_linear_257206_166)"/>
<g filter="url(#filter1_d_257206_166)">
<g filter="url(#filter2_ii_257206_166)">
<path d="M106.533 195.339C105.458 163.814 125.733 135.512 155.929 126.39L158.759 125.535C174.602 120.749 191.505 120.749 207.348 125.535L210.043 126.349C240.306 135.492 260.605 163.883 259.468 195.477L258.159 231.858C256.702 272.333 223.469 304.392 182.968 304.392C142.413 304.392 109.155 272.248 107.773 231.716L106.533 195.339Z" fill="url(#paint3_linear_257206_166)"/>
</g>
<g opacity="0.2" filter="url(#filter3_f_257206_166)">
<path d="M137.714 270.07C136.969 262.86 142.225 256.416 149.438 255.697L178.54 252.796C181.717 252.479 184.917 252.479 188.093 252.796L217.099 255.687C224.353 256.41 229.625 262.911 228.835 270.159C227.657 280.958 218.536 289.138 207.673 289.138H158.854C147.962 289.138 138.833 280.904 137.714 270.07Z" fill="url(#paint4_linear_257206_166)"/>
</g>
</g>
<g filter="url(#filter4_dd_257206_166)">
<path d="M190.121 276.847C190.121 278.559 187.164 279.947 183.516 279.947C179.868 279.947 176.91 278.559 176.91 276.847C176.91 275.136 179.868 273.748 183.516 273.748C187.164 273.748 190.121 275.136 190.121 276.847Z" fill="url(#paint5_linear_257206_166)"/>
</g>
<g filter="url(#filter5_dd_257206_166)">
<ellipse cx="139.529" cy="200.774" rx="18.4649" ry="18.4093" fill="url(#paint6_linear_257206_166)"/>
</g>
<ellipse cx="139.53" cy="227.861" rx="8.44108" ry="4.47082" fill="url(#paint7_linear_257206_166)"/>
<path d="M135.377 154.471C136.568 148.956 141.446 145.02 147.088 145.02C147.866 145.02 148.498 145.651 148.498 146.43V170.962C148.498 175.517 144.805 179.209 140.251 179.209C134.995 179.209 131.081 174.358 132.19 169.221L135.377 154.471Z" fill="url(#paint8_linear_257206_166)"/>
<path d="M134.652 263.89C135.639 269.955 140.878 274.411 147.023 274.411C147.837 274.411 148.498 273.751 148.498 272.936V243.975C148.498 239.288 144.698 235.488 140.011 235.488C134.78 235.488 130.795 240.175 131.635 245.337L134.652 263.89Z" fill="url(#paint9_linear_257206_166)"/>
<g filter="url(#filter6_dd_257206_166)">
<ellipse cx="18.4649" cy="18.4093" rx="18.4649" ry="18.4093" transform="matrix(-1 0 0 1 243.987 182.365)" fill="url(#paint10_linear_257206_166)"/>
</g>
<ellipse cx="8.44108" cy="4.47082" rx="8.44108" ry="4.47082" transform="matrix(-1 0 0 1 233.964 223.391)" fill="url(#paint11_linear_257206_166)"/>
<path d="M229.675 154.471C228.483 148.956 223.606 145.02 217.963 145.02C217.185 145.02 216.554 145.651 216.554 146.43V170.962C216.554 175.517 220.246 179.209 224.8 179.209C230.056 179.209 233.971 174.358 232.861 169.221L229.675 154.471Z" fill="url(#paint12_linear_257206_166)"/>
<path d="M230.399 263.89C229.413 269.955 224.174 274.411 218.028 274.411C217.214 274.411 216.554 273.751 216.554 272.936V243.975C216.554 239.288 220.353 235.488 225.04 235.488C230.271 235.488 234.257 240.175 233.417 245.337L230.399 263.89Z" fill="url(#paint13_linear_257206_166)"/>
<defs>
<filter id="filter0_f_257206_166" x="36.3321" y="423.501" width="295.597" height="179.307" filterUnits="userSpaceOnUse" color-interpolation-filters="sRGB">
<feFlood flood-opacity="0" result="BackgroundImageFix"/>
<feBlend mode="normal" in="SourceGraphic" in2="BackgroundImageFix" result="shape"/>
<feGaussianBlur stdDeviation="42.5025" result="effect1_foregroundBlur_257206_166"/>
</filter>
<filter id="filter1_d_257206_166" x="0.231277" y="0.807702" width="365.543" height="394.968" filterUnits="userSpaceOnUse" color-interpolation-filters="sRGB">
<feFlood flood-opacity="0" result="BackgroundImageFix"/>
<feColorMatrix in="SourceAlpha" type="matrix" values="0 0 0 0 0 0 0 0 0 0 0 0 0 0 0 0 0 0 127 0" result="hardAlpha"/>
<feOffset dy="-14.8765"/>
<feGaussianBlur stdDeviation="53.1304"/>
<feColorMatrix type="matrix" values="0 0 0 0 1 0 0 0 0 0.820833 0 0 0 0 0.992833 0 0 0 0.37 0"/>
<feBlend mode="normal" in2="BackgroundImageFix" result="effect1_dropShadow_257206_166"/>
<feBlend mode="normal" in="SourceGraphic" in2="effect1_dropShadow_257206_166" result="shape"/>
</filter>
<filter id="filter2_ii_257206_166" x="69.3008" y="109.194" width="190.213" height="195.198" filterUnits="userSpaceOnUse" color-interpolation-filters="sRGB">
<feFlood flood-opacity="0" result="BackgroundImageFix"/>
<feBlend mode="normal" in="SourceGraphic" in2="BackgroundImageFix" result="shape"/>
<feColorMatrix in="SourceAlpha" type="matrix" values="0 0 0 0 0 0 0 0 0 0 0 0 0 0 0 0 0 0 127 0" result="hardAlpha"/>
<feOffset dy="-9.56348"/>
<feGaussianBlur stdDeviation="9.56348"/>
<feComposite in2="hardAlpha" operator="arithmetic" k2="-1" k3="1"/>
<feColorMatrix type="matrix" values="0 0 0 0 0.379167 0 0 0 0 0.102691 0 0 0 0 0.351519 0 0 0 0.31 0"/>
<feBlend mode="normal" in2="shape" result="effect1_innerShadow_257206_166"/>
<feColorMatrix in="SourceAlpha" type="matrix" values="0 0 0 0 0 0 0 0 0 0 0 0 0 0 0 0 0 0 127 0" result="hardAlpha"/>
<feOffset dx="-37.1913" dy="-12.7513"/>
<feGaussianBlur stdDeviation="42.5043"/>
<feComposite in2="hardAlpha" operator="arithmetic" k2="-1" k3="1"/>
<feColorMatrix type="matrix" values="0 0 0 0 0.356342 0 0 0 0 0.165208 0 0 0 0 0.7625 0 0 0 0.28 0"/>
<feBlend mode="normal" in2="effect1_innerShadow_257206_166" result="effect2_innerShadow_257206_166"/>
</filter>
<filter id="filter3_f_257206_166" x="55.8738" y="170.789" width="254.809" height="200.119" filterUnits="userSpaceOnUse" color-interpolation-filters="sRGB">
<feFlood flood-opacity="0" result="BackgroundImageFix"/>
<feBlend mode="normal" in="SourceGraphic" in2="BackgroundImageFix" result="shape"/>
<feGaussianBlur stdDeviation="40.8848" result="effect1_foregroundBlur_257206_166"/>
</filter>
<filter id="filter4_dd_257206_166" x="165.222" y="264.859" width="36.5884" height="33.1514" filterUnits="userSpaceOnUse" color-interpolation-filters="sRGB">
<feFlood flood-opacity="0" result="BackgroundImageFix"/>
<feColorMatrix in="SourceAlpha" type="matrix" values="0 0 0 0 0 0 0 0 0 0 0 0 0 0 0 0 0 0 127 0" result="hardAlpha"/>
<feOffset dy="6.37565"/>
<feGaussianBlur stdDeviation="5.84435"/>
<feColorMatrix type="matrix" values="0 0 0 0 0.599108 0 0 0 0 0.279792 0 0 0 0 0.85 0 0 0 0.35 0"/>
<feBlend mode="normal" in2="BackgroundImageFix" result="effect1_dropShadow_257206_166"/>
<feColorMatrix in="SourceAlpha" type="matrix" values="0 0 0 0 0 0 0 0 0 0 0 0 0 0 0 0 0 0 127 0" result="hardAlpha"/>
<feOffset dx="-2.12522" dy="-1.06261"/>
<feGaussianBlur stdDeviation="3.91311"/>
<feColorMatrix type="matrix" values="0 0 0 0 1 0 0 0 0 1 0 0 0 0 1 0 0 0 0.2 0"/>
<feBlend mode="normal" in2="effect1_dropShadow_257206_166" result="effect2_dropShadow_257206_166"/>
<feBlend mode="normal" in="SourceGraphic" in2="effect2_dropShadow_257206_166" result="shape"/>
</filter>
<filter id="filter5_dd_257206_166" x="113.626" y="178.114" width="51.8063" height="55.9456" filterUnits="userSpaceOnUse" color-interpolation-filters="sRGB">
<feFlood flood-opacity="0" result="BackgroundImageFix"/>
<feColorMatrix in="SourceAlpha" type="matrix" values="0 0 0 0 0 0 0 0 0 0 0 0 0 0 0 0 0 0 127 0" result="hardAlpha"/>
<feOffset dy="7.43826"/>
<feGaussianBlur stdDeviation="3.71913"/>
<feColorMatrix type="matrix" values="0 0 0 0 0.603458 0 0 0 0 0.390104 0 0 0 0 0.875 0 0 0 0.32 0"/>
<feBlend mode="normal" in2="BackgroundImageFix" result="effect1_dropShadow_257206_166"/>
<feColorMatrix in="SourceAlpha" type="matrix" values="0 0 0 0 0 0 0 0 0 0 0 0 0 0 0 0 0 0 127 0" result="hardAlpha"/>
<feOffset dx="-2.12522" dy="-2.12522"/>
<feGaussianBlur stdDeviation="1.06261"/>
<feColorMatrix type="matrix" values="0 0 0 0 1 0 0 0 0 1 0 0 0 0 1 0 0 0 0.4 0"/>
<feBlend mode="normal" in2="effect1_dropShadow_257206_166" result="effect2_dropShadow_257206_166"/>
<feBlend mode="normal" in="SourceGraphic" in2="effect2_dropShadow_257206_166" result="shape"/>
</filter>
<filter id="filter6_dd_257206_166" x="199.619" y="178.114" width="51.8063" height="55.9456" filterUnits="userSpaceOnUse" color-interpolation-filters="sRGB">
<feFlood flood-opacity="0" result="BackgroundImageFix"/>
<feColorMatrix in="SourceAlpha" type="matrix" values="0 0 0 0 0 0 0 0 0 0 0 0 0 0 0 0 0 0 127 0" result="hardAlpha"/>
<feOffset dy="7.43826"/>
<feGaussianBlur stdDeviation="3.71913"/>
<feColorMatrix type="matrix" values="0 0 0 0 0.603458 0 0 0 0 0.390104 0 0 0 0 0.875 0 0 0 0.32 0"/>
<feBlend mode="normal" in2="BackgroundImageFix" result="effect1_dropShadow_257206_166"/>
<feColorMatrix in="SourceAlpha" type="matrix" values="0 0 0 0 0 0 0 0 0 0 0 0 0 0 0 0 0 0 127 0" result="hardAlpha"/>
<feOffset dx="-2.12522" dy="-2.12522"/>
<feGaussianBlur stdDeviation="1.06261"/>
<feColorMatrix type="matrix" values="0 0 0 0 1 0 0 0 0 1 0 0 0 0 1 0 0 0 0.4 0"/>
<feBlend mode="normal" in2="effect1_dropShadow_257206_166" result="effect2_dropShadow_257206_166"/>
<feBlend mode="normal" in="SourceGraphic" in2="effect2_dropShadow_257206_166" result="shape"/>
</filter>
<linearGradient id="paint0_linear_257206_166" x1="184.13" y1="508.506" x2="184.13" y2="517.804" gradientUnits="userSpaceOnUse">
<stop/>
<stop offset="1" stop-color="#151433" stop-opacity="0.87"/>
<stop offset="1" stop-color="#251F27" stop-opacity="0.87"/>
</linearGradient>
<linearGradient id="paint1_linear_257206_166" x1="183.053" y1="121.877" x2="183.321" y2="517.15" gradientUnits="userSpaceOnUse">
<stop stop-color="#0D0038"/>
<stop offset="1" stop-opacity="0"/>
</linearGradient>
<linearGradient id="paint2_linear_257206_166" x1="245.616" y1="173.144" x2="90.337" y2="309.365" gradientUnits="userSpaceOnUse">
<stop stop-color="#0D0038" stop-opacity="0.64"/>
<stop offset="1" stop-opacity="0"/>
</linearGradient>
<linearGradient id="paint3_linear_257206_166" x1="183.054" y1="118.195" x2="183.054" y2="304.392" gradientUnits="userSpaceOnUse">
<stop stop-color="white"/>
<stop offset="0.0698237" stop-color="#F4F0F4" stop-opacity="0.990923"/>
<stop offset="0.942282" stop-color="#C7C5FE" stop-opacity="0.77"/>
<stop offset="1" stop-color="#C4C2FF" stop-opacity="0.81"/>
</linearGradient>
<linearGradient id="paint4_linear_257206_166" x1="183.317" y1="252.32" x2="183.317" y2="289.138" gradientUnits="userSpaceOnUse">
<stop stop-color="#5B225C"/>
<stop offset="1" stop-color="#151433" stop-opacity="0.87"/>
<stop offset="1" stop-color="#59266B" stop-opacity="0.87"/>
</linearGradient>
<linearGradient id="paint5_linear_257206_166" x1="185.106" y1="271.316" x2="185.108" y2="280.771" gradientUnits="userSpaceOnUse">
<stop stop-color="#261953"/>
<stop offset="1" stop-color="#11082F"/>
</linearGradient>
<linearGradient id="paint6_linear_257206_166" x1="139.529" y1="185.005" x2="139.544" y2="222.447" gradientUnits="userSpaceOnUse">
<stop stop-color="#2E1E65"/>
<stop offset="1" stop-color="#11082F"/>
</linearGradient>
<linearGradient id="paint7_linear_257206_166" x1="154.038" y1="223.391" x2="124.441" y2="234.724" gradientUnits="userSpaceOnUse">
<stop stop-color="#FE4A23" stop-opacity="0.35"/>
<stop offset="1" stop-color="#FA43B0" stop-opacity="0"/>
</linearGradient>
<linearGradient id="paint8_linear_257206_166" x1="139.265" y1="145.02" x2="139.017" y2="185.677" gradientUnits="userSpaceOnUse">
<stop stop-color="#FE4A23" stop-opacity="0.42"/>
<stop offset="1" stop-color="#FA43B0" stop-opacity="0.38"/>
</linearGradient>
<linearGradient id="paint9_linear_257206_166" x1="139.265" y1="274.411" x2="138.943" y2="228.126" gradientUnits="userSpaceOnUse">
<stop stop-color="#FE4A23" stop-opacity="0.17"/>
<stop offset="1" stop-color="#FA43B0" stop-opacity="0.48"/>
</linearGradient>
<linearGradient id="paint10_linear_257206_166" x1="18.4649" y1="2.64057" x2="18.4794" y2="40.0819" gradientUnits="userSpaceOnUse">
<stop stop-color="#2E1E65"/>
<stop offset="1" stop-color="#11082F"/>
</linearGradient>
<linearGradient id="paint11_linear_257206_166" x1="22.9492" y1="-7.97932e-07" x2="-6.6473" y2="11.3338" gradientUnits="userSpaceOnUse">
<stop stop-color="#FE4A23" stop-opacity="0.35"/>
<stop offset="1" stop-color="#FA43B0" stop-opacity="0"/>
</linearGradient>
<linearGradient id="paint12_linear_257206_166" x1="225.786" y1="145.02" x2="226.035" y2="185.677" gradientUnits="userSpaceOnUse">
<stop stop-color="#FE4A23" stop-opacity="0.42"/>
<stop offset="1" stop-color="#FA43B0" stop-opacity="0.38"/>
</linearGradient>
<linearGradient id="paint13_linear_257206_166" x1="225.786" y1="274.411" x2="226.108" y2="228.126" gradientUnits="userSpaceOnUse">
<stop stop-color="#FE4A23" stop-opacity="0.17"/>
<stop offset="1" stop-color="#FA43B0" stop-opacity="0.48"/>
</linearGradient>
</defs>
</svg>
