<svg width="25" height="25" viewBox="0 0 25 20" fill="none" xmlns="http://www.w3.org/2000/svg">
    <path d="M24.7822 0.00999773C24.7412 0.0290072 24.7061 0.0580153 24.6801 0.0941963C21.1551 4.38528 17.6291 8.67637 14.1072 12.9675C13.9958 13.0618 14.0812 13.2596 14.2312 13.2363C16.7718 13.2393 19.3114 13.2363 21.852 13.2373C21.9617 13.2428 22.0711 13.2227 22.1711 13.1786C22.2712 13.1344 22.3589 13.0676 22.427 12.9837C23.2332 12.0027 24.0415 11.0218 24.8478 10.0388C24.9585 9.89649 25.0118 9.71966 24.9978 9.54169C24.9957 6.42025 24.9978 3.29983 24.9947 0.178395C25.0113 0.0668066 24.8905 -0.0295655 24.7822 0.00999773ZM0.0791663 0.0241998C-0.00104166 0.0627486 0.00208332 0.158106 0 0.23216C0.00208332 3.35055 0.00104166 6.47097 0.00104166 9.59038C-0.00592966 9.76142 0.0527427 9.92886 0.165624 10.0601L8.12392 19.748C8.24892 19.9022 8.44475 20.0016 8.64996 19.9985C11.2072 19.9985 13.7645 20.0016 16.3218 19.9985C16.4697 20.0188 16.553 19.822 16.4426 19.7297C11.1041 13.2221 5.75518 6.71951 0.415623 0.210857C0.33229 0.1155 0.234374 -0.065071 0.0802079 0.0241998H0.0791663Z" fill="#FF4655"/>
</svg>